<svg width="300" height="60" viewBox="0 0 100 20" fill="none" xmlns="http://www.w3.org/2000/svg">
<path d="M69.4876 16.5984C65.9319 16.5984 63.3037 14.0706 63.3037 10.3572C63.3037 6.93464 65.711 4.11605 69.1563 4.11605C73.1096 4.11605 74.9205 7.22545 74.9205 10.6257C74.9205 10.8941 74.8985 11.2073 74.8764 11.5205H66.6386C66.9699 13.064 68.03 13.8693 69.5317 13.8693C70.6581 13.8693 71.4752 13.5114 72.4028 12.6389L74.3242 14.3614C73.22 15.7483 71.6298 16.5984 69.4876 16.5984ZM66.5944 9.39532H71.6519C71.4532 7.87417 70.5698 6.84516 69.1563 6.84516C67.7649 6.84516 66.8594 7.8518 66.5944 9.39532Z" fill="#181818"/>
<path d="M82.5682 16.5984C79.0125 16.5984 76.4065 13.8245 76.4065 10.3572C76.4065 6.93464 78.9904 4.11605 82.6124 4.11605C84.843 4.11605 86.2123 4.9661 87.3166 6.21881L85.351 8.23209C84.6222 7.53863 83.9154 7.04649 82.5903 7.04649C80.9118 7.04649 79.7192 8.54527 79.7192 10.3572C79.7192 12.1915 80.8898 13.668 82.7228 13.668C83.8492 13.668 84.6222 13.1758 85.4393 12.3929L87.4049 14.4062C86.2565 15.6812 84.9314 16.5984 82.5682 16.5984Z" fill="#181818"/>
<path d="M89.156 16.33V0H92.513V6.03985C93.286 5.03321 94.2798 4.11605 95.9804 4.11605C98.5202 4.11605 99.9999 5.81615 99.9999 8.56764V16.33H96.6429V9.64139C96.6429 8.03076 95.892 7.20308 94.6111 7.20308C93.3301 7.20308 92.513 8.03076 92.513 9.64139V16.33H89.156Z" fill="#181818"/>
<path d="M0 20.0001H3.35695V14.8551C4.15202 15.817 5.25628 16.6446 7.04519 16.6446C9.85001 16.6446 12.434 14.4524 12.434 10.4482C12.434 6.39927 9.80584 4.20703 7.04519 4.20703C5.30045 4.20703 4.17411 5.03471 3.35695 6.1532V4.20703H0V20.0001ZM6.18386 13.7589C4.61581 13.7589 3.31278 12.4391 3.31278 10.4482C3.31278 8.41256 4.61581 7.09274 6.18386 7.09274C7.75192 7.09274 9.07703 8.41256 9.07703 10.4035C9.07703 12.4615 7.75192 13.7589 6.18386 13.7589Z" fill="#181818"/>
<path d="M20.2654 16.6894C23.9537 16.6894 26.6922 13.8932 26.6922 10.4482C26.6922 6.95852 23.9758 4.20703 20.3096 4.20703C16.6214 4.20703 13.8828 7.00326 13.8828 10.4482C13.8828 13.9379 16.5993 16.6894 20.2654 16.6894ZM20.3096 13.7589C18.4545 13.7589 17.1956 12.2154 17.1956 10.4482C17.1956 8.63625 18.344 7.13748 20.2654 7.13748C22.1206 7.13748 23.3795 8.68099 23.3795 10.4482C23.3795 12.2602 22.231 13.7589 20.3096 13.7589Z" fill="#181818"/>
<path d="M28.1621 16.6422H31.5191L31.5191 9.71797C31.5191 8.10734 32.3362 7.27966 33.6172 7.27966C34.8981 7.27966 35.649 8.10734 35.649 9.71797V16.6406H39.006V8.64422C39.006 5.89273 37.5262 4.19263 34.9864 4.19263C33.2859 4.19263 32.292 5.10979 31.5191 6.11643V4.204H28.1621L28.1621 16.6422Z" fill="#181818"/>
<path d="M45.5589 16.6893C46.6853 16.6893 47.4636 16.467 48.2092 16.2806V13.6091C47.6542 13.6469 47.1712 13.6918 46.5528 13.6918C45.8019 13.6918 45.4706 13.3115 45.4706 12.5285V7.18122H48.2533V4.27314H45.4706V1.43311H42.1136V4.27314H40.7002V7.18122H42.1136V13.0878C42.1136 15.8616 43.505 16.6893 45.5589 16.6893Z" fill="#181818"/>
<path d="M59.4681 16.6422C60.5945 16.6422 61.3728 16.4199 62.1184 16.2335V13.562C61.5633 13.5998 61.0803 13.6446 60.462 13.6446C59.7111 13.6446 59.3798 13.2644 59.3798 12.4814V7.1341H62.1625V4.22603H59.3798V1.38599H56.0228V4.22603H54.6094V7.1341H56.0228V13.0407C56.0228 15.8145 57.4142 16.6422 59.4681 16.6422Z" fill="#181818"/>
<path d="M53.8094 15.0819C53.8094 15.9696 53.099 16.6892 52.2226 16.6892C51.3462 16.6892 50.6357 15.9696 50.6357 15.0819C50.6357 14.1942 51.3462 13.4746 52.2226 13.4746C53.099 13.4746 53.8094 14.1942 53.8094 15.0819Z" fill="#181818"/>
</svg>
